<svg xmlns="http://www.w3.org/2000/svg" version="1.1" xmlns:xlink="http://www.w3.org/1999/xlink" xmlns:svgjs="http://svgjs.com/svgjs" width="512" height="512" x="0" y="0" viewBox="0 0 512 512" style="enable-background:new 0 0 512 512" xml:space="preserve" class=""><g transform="matrix(-1,0,0,1,514.4999160766605,-1.7053025658242404e-13)"><g xmlns="http://www.w3.org/2000/svg"><g><path d="m481.6 256-3.4-1.9c-30.7-17.4-54.2-44.3-69.6-75.7-15.7-32.1-49.1-54.3-87.7-54.3h-274.4c-15 0-27.1 11.9-27.1 26.7v194.2c0 14.7 12.1 26.7 27.1 26.7h22.8c-3.1-6.6-4.9-14-4.9-21.7 0-28.4 23-51.4 51.4-51.4s51.4 23 51.4 51.4c0 7.8-1.8 15.1-4.9 21.7h160.1c-3.1-6.6-4.9-14-4.9-21.7 0-28.4 23-51.4 51.4-51.4s51.4 23 51.4 51.4c0 7.8-1.8 15.1-4.9 21.7h52.6c15 0 27.1-11.9 27.1-26.7v-65.9c0-9.5-5.1-18.3-13.5-23.1z" fill="#48cdd5" data-original="#ffffff" class=""></path></g><g><path d="m272.2 371.8-179.2-247.6h-46.5c-15 0-27.1 11.9-27.1 26.7v194.2c0 14.7 12.1 26.7 27.1 26.7h22.8c-3.1-6.6-4.9-14-4.9-21.7 0-28.4 23-51.4 51.4-51.4s51.4 23 51.4 51.4c0 7.8-1.8 15.1-4.9 21.7z" fill="#e0e0e0" data-original="#e0e0e0" class=""></path></g><g><path d="m19.4 259.4h471.4v53.6h-471.4z" fill="#ff223d" data-original="#ff223d" class=""></path></g><g><circle cx="115.9" cy="350" fill="#514c68" r="51.4" data-original="#514c68" class=""></circle></g><g><circle cx="369.2" cy="350" fill="#514c68" r="51.4" data-original="#514c68" class=""></circle></g><g><path d="m389.4 187.6c-5.5-4.9-10.4-11.4-14-18.1-4-4-8.3-7.5-13.1-10.5-1.1-.4-2.2-.7-3.3-1.1-2.1-.7-3.5-1.8-4.4-3.1-2.3-1.1-4.7-2-7.1-2.8-1-.3-1.8-.7-2.5-1.3h-41.5c-1.8 0-3.2 1.4-3.2 3.2v80.8c0 1.8 1.4 3.2 3.2 3.2h85.6c2.1 0 3.8-1.7 3.8-3.8v-39.9c-.9-2.1-2.2-4.4-3.5-6.6z" fill="#00b8f0" data-original="#00b8f0" class=""></path></g><g><path d="m203.4 184h-33.3v-33.2h-30.7v33.2h-33.2v30.7h33.2v33.3h30.7v-33.3h33.3z" fill="#ff223d" data-original="#ff223d" class=""></path></g><g><path d="m274.2 120.7 2.1-20.6c.5-4.9 4.6-8.6 9.6-8.6h31.4c4.9 0 9.1 3.7 9.6 8.6l2.1 20.6" fill="#ff223d" data-original="#ff223d" class=""></path></g><g><circle cx="115.9" cy="350" fill="#8b9da5" r="25.7" data-original="#8b9da5" class=""></circle></g><g><circle cx="369.2" cy="350" fill="#8b9da5" r="25.7" data-original="#8b9da5" class=""></circle></g><g><path d="m314.8 238.1h61c3 0 5.7-.8 8.1-2.1l-78-82c-3.3 2.6-5.5 6.7-5.5 11.2v58.5c0 7.9 6.5 14.4 14.4 14.4z" fill="#64e9ff" data-original="#64e9ff" class=""></path></g><g><g><path d="m115.9 380.5c-16.8 0-30.5-13.7-30.5-30.5s13.7-30.5 30.5-30.5 30.5 13.7 30.5 30.5c0 16.9-13.6 30.5-30.5 30.5zm0-51.3c-11.5 0-20.8 9.3-20.8 20.8s9.3 20.8 20.8 20.8 20.8-9.3 20.8-20.8c0-11.4-9.3-20.8-20.8-20.8z" fill="#3f0f33" data-original="#3f0f33" class=""></path></g><g><path d="m369.2 380.5c-16.8 0-30.5-13.7-30.5-30.5s13.7-30.5 30.5-30.5 30.5 13.7 30.5 30.5c0 16.9-13.7 30.5-30.5 30.5zm0-51.3c-11.5 0-20.8 9.3-20.8 20.8s9.3 20.8 20.8 20.8 20.8-9.3 20.8-20.8c0-11.4-9.3-20.8-20.8-20.8z" fill="#3f0f33" data-original="#3f0f33" class=""></path></g><g><path d="m115.9 406.3c-31.1 0-56.3-25.3-56.3-56.3s25.3-56.3 56.3-56.3 56.3 25.3 56.3 56.3-25.2 56.3-56.3 56.3zm0-102.9c-25.7 0-46.6 20.9-46.6 46.6s20.9 46.6 46.6 46.6 46.6-20.9 46.6-46.6-20.9-46.6-46.6-46.6z" fill="#3f0f33" data-original="#3f0f33" class=""></path></g><g><path d="m369.2 406.3c-31.1 0-56.3-25.3-56.3-56.3s25.3-56.3 56.3-56.3 56.3 25.3 56.3 56.3-25.2 56.3-56.3 56.3zm0-102.9c-25.7 0-46.6 20.9-46.6 46.6s20.9 46.6 46.6 46.6 46.6-20.9 46.6-46.6-20.9-46.6-46.6-46.6z" fill="#3f0f33" data-original="#3f0f33" class=""></path></g><g><path d="m468 376.6h-52.2c-1.7 0-3.2-.9-4.1-2.3s-1-3.2-.3-4.7c2.9-6.3 4.4-12.9 4.4-19.7 0-25.7-20.9-46.6-46.6-46.6s-46.6 20.9-46.6 46.6c0 6.8 1.5 13.4 4.4 19.7.7 1.5.6 3.3-.3 4.7s-2.4 2.3-4.1 2.3h-160.1c-1.7 0-3.2-.9-4.1-2.3s-1-3.2-.3-4.7c2.9-6.3 4.4-12.9 4.4-19.7 0-25.7-20.9-46.6-46.6-46.6s-46.6 21-46.6 46.7c0 6.8 1.5 13.4 4.4 19.7.7 1.5.6 3.3-.3 4.7s-2.4 2.3-4.1 2.3h-22.8c-17.6 0-32-14.2-32-31.6v-194.2c0-17.4 14.3-31.6 32-31.6h274.4c39 0 75.2 22.4 92.1 57 15.6 31.8 39 57.3 67.6 73.6l3.4 1.9c9.9 5.6 16 16.1 16 27.4v65.9c0 17.4-14.3 31.5-32 31.5zm-45.1-9.7h45.1c12.3 0 22.2-9.8 22.2-21.8v-65.9c0-7.8-4.2-15-11.1-18.9l-3.4-1.9c-30.4-17.3-55.1-44.2-71.5-77.8-15.3-31.3-48-51.5-83.3-51.5h-274.4c-12.3 0-22.2 9.8-22.2 21.8v194.2c0 12 10 21.8 22.2 21.8h15.7c-1.7-5.5-2.6-11.1-2.6-16.9 0-31.1 25.3-56.3 56.3-56.3s56.3 25.3 56.3 56.3c0 5.8-.9 11.4-2.6 16.9h145.9c-1.7-5.5-2.6-11.1-2.6-16.9 0-31.1 25.3-56.3 56.3-56.3s56.3 25.3 56.3 56.3c0 5.8-.9 11.4-2.6 16.9z" fill="#3f0f33" data-original="#3f0f33" class=""></path></g><g><path d="m378.1 242.9h-65.2c-9.6 0-17.4-7.8-17.4-17.4v-62.3c0-9.6 7.8-17.4 17.4-17.4h19.4c36.2 0 65.6 29.4 65.6 65.6v11.5c.1 11.1-8.9 20-19.8 20zm-65.2-87.2c-4.2 0-7.6 3.4-7.6 7.6v62.3c0 4.2 3.4 7.6 7.6 7.6h65.2c5.6 0 10.1-4.5 10.1-10.1v-11.5c0-30.8-25.1-55.8-55.8-55.8h-19.5z" fill="#3f0f33" data-original="#3f0f33" class=""></path></g><g><path d="m170.1 252.8h-30.7c-2.7 0-4.9-2.2-4.9-4.9v-28.4h-28.4c-2.7 0-4.9-2.2-4.9-4.9v-30.6c0-2.7 2.2-4.9 4.9-4.9h28.4v-28.4c0-2.7 2.2-4.9 4.9-4.9h30.7c2.7 0 4.9 2.2 4.9 4.9v28.4h28.4c2.7 0 4.9 2.2 4.9 4.9v30.7c0 2.7-2.2 4.9-4.9 4.9h-28.4v28.4c0 2.7-2.2 4.8-4.9 4.8zm-25.8-9.7h20.9v-28.4c0-2.7 2.2-4.9 4.9-4.9h28.4v-20.9h-28.4c-2.7 0-4.9-2.2-4.9-4.9v-28.4h-20.9v28.4c0 2.7-2.2 4.9-4.9 4.9h-28.4v20.9h28.4c2.7 0 4.9 2.2 4.9 4.9z" fill="#3f0f33" data-original="#3f0f33" class=""></path></g><g><path d="m329 125.6c-2.5 0-4.6-1.9-4.8-4.4l-2.1-20.6c-.2-2.4-2.3-4.3-4.7-4.3h-31.4c-2.4 0-4.5 1.8-4.7 4.3l-2.1 20.6c-.3 2.7-2.6 4.7-5.3 4.4s-4.6-2.7-4.4-5.3l2.1-20.6c.8-7.4 7-13 14.4-13h31.4c7.5 0 13.7 5.6 14.4 13l2.1 20.6c.3 2.7-1.7 5.1-4.4 5.3-.2 0-.4 0-.5 0z" fill="#3f0f33" data-original="#3f0f33" class=""></path></g></g></g></g></svg>