<svg xmlns="http://www.w3.org/2000/svg" version="1.1" xmlns:xlink="http://www.w3.org/1999/xlink" xmlns:svgjs="http://svgjs.com/svgjs" width="512" height="512" x="0" y="0" viewBox="0 0 64 64" style="enable-background:new 0 0 512 512" xml:space="preserve" class=""><g><path xmlns="http://www.w3.org/2000/svg" d="m60 32a28 28 0 1 1 -29-27.97c.33-.02.66-.03 1-.03s.67.01 1 .03a27.9918 27.9918 0 0 1 27 27.97z" fill="#f06392" data-original="#f06392"></path><path xmlns="http://www.w3.org/2000/svg" d="m60 32a28.0051 28.0051 0 0 1 -28 28v-56a28.0051 28.0051 0 0 1 28 28z" fill="#ec417a" data-original="#ec417a" class=""></path><circle xmlns="http://www.w3.org/2000/svg" cx="32" cy="32" fill="#ae1f59" r="24" data-original="#ae1f59" class=""></circle><path xmlns="http://www.w3.org/2000/svg" d="m56 32a24.0062 24.0062 0 0 1 -24 24v-48a24.0062 24.0062 0 0 1 24 24z" fill="#881a51" data-original="#881a51" class=""></path><path xmlns="http://www.w3.org/2000/svg" d="m22.01 24.96a3.9513 3.9513 0 0 0 1.15 2.79l8.55 8.61a1.0079 1.0079 0 0 1 0 1.42 1.0243 1.0243 0 0 1 -.71.29 1.01 1.01 0 0 1 -.71-.3l-8.55-8.62a5.8842 5.8842 0 0 1 -1.73-4.19 5.9621 5.9621 0 0 1 5.96-5.96h1.07a3.9691 3.9691 0 0 0 3.96-3.96v-11.01c.33-.02.66-.03 1-.03s.67.01 1 .03v11.01a5.9621 5.9621 0 0 1 -5.96 5.96h-1.07a3.9691 3.9691 0 0 0 -3.96 3.96z" fill="#f06392" data-original="#f06392"></path><path xmlns="http://www.w3.org/2000/svg" d="m48.349 32.467a5 5 0 1 1 -1.882-6.816 5.0018 5.0018 0 0 1 1.882 6.816z" fill="#f58967" data-original="#f58967" class=""></path><path xmlns="http://www.w3.org/2000/svg" d="m44.26 34.97a15.3711 15.3711 0 0 1 -3.26 6.12c-3 3.02-11.9 8.94-17.99 4.03-5-4.03-2-8.05-2-8.05l-4.27-.72a2.0877 2.0877 0 0 1 .51-4.14l6.2.48a10.0805 10.0805 0 0 1 7.3 4.03 10.2065 10.2065 0 0 1 -1.38-8.51l.08-.28a2.0793 2.0793 0 0 1 2-1.52 2.0023 2.0023 0 0 1 .54.07 2.0935 2.0935 0 0 1 1.51 2.54v.01a2.7858 2.7858 0 0 0 1.26 3.06l3.24 1.96 1.64-1.65a5.1106 5.1106 0 0 0 1.91 1.95 4.847 4.847 0 0 0 2.45.65 2.3 2.3 0 0 0 .26-.03z" fill="#fbcbbd" data-original="#fbcbbd" class=""></path><path xmlns="http://www.w3.org/2000/svg" d="m44.26 34.97a15.3711 15.3711 0 0 1 -3.26 6.12c-3 3.02-11.9 8.94-17.99 4.03-5-4.03-2-8.05-2-8.05l-4.27-.72a2.0824 2.0824 0 0 1 -1.74-2.05c4-.7 10 1.7 10 1.7 0 4 2 6 9 4a14.5874 14.5874 0 0 0 7.55-5.65 4.847 4.847 0 0 0 2.45.65 2.3 2.3 0 0 0 .26-.03z" fill="#f9aa92" data-original="#f9aa92" class=""></path><path xmlns="http://www.w3.org/2000/svg" d="m48.349 32.467a5.0018 5.0018 0 0 1 -6.816 1.882l4.934-8.698a5.0018 5.0018 0 0 1 1.882 6.816z" fill="#f37046" data-original="#f37046" class=""></path><path xmlns="http://www.w3.org/2000/svg" d="m38 34.05-2.02 2.03s-7.72-4-3.99-9.6a2.0935 2.0935 0 0 1 1.51 2.54v.01a2.7858 2.7858 0 0 0 1.26 3.06z" fill="#f9aa92" data-original="#f9aa92" class=""></path><circle xmlns="http://www.w3.org/2000/svg" cx="38" cy="17" fill="#ec417a" r="2" data-original="#ec417a" class=""></circle><circle xmlns="http://www.w3.org/2000/svg" cx="44" cy="46" fill="#ec417a" r="2" data-original="#ec417a" class=""></circle><circle xmlns="http://www.w3.org/2000/svg" cx="14" cy="26" fill="#f06392" r="1" data-original="#f06392"></circle><circle xmlns="http://www.w3.org/2000/svg" cx="24" cy="15" fill="#f06392" r="1" data-original="#f06392"></circle><g xmlns="http://www.w3.org/2000/svg" fill="#ec417a"><circle cx="52" cy="36" r="1" fill="#ec417a" data-original="#ec417a" class=""></circle><circle cx="32" cy="52" r="1" fill="#ec417a" data-original="#ec417a" class=""></circle><circle cx="36" cy="24" r="1" fill="#ec417a" data-original="#ec417a" class=""></circle></g></g></svg>