<svg xmlns="http://www.w3.org/2000/svg" version="1.1" xmlns:xlink="http://www.w3.org/1999/xlink" xmlns:svgjs="http://svgjs.com/svgjs" width="512" height="512" x="0" y="0" viewBox="0 0 45.003 43.501" style="enable-background:new 0 0 512 512" xml:space="preserve" class=""><g transform="matrix(-1,0,0,1,45.00467356556328,0)"><g xmlns="http://www.w3.org/2000/svg" id="Layer_2_1_"><g id="lineal_color"><path d="m39.03 43h-4c-.276 0-.5-.224-.5-.5s.224-.5.5-.5h4c.276 0 .5.224.5.5s-.224.5-.5.5z" fill="#9eafc6" data-original="#9eafc6" class=""></path><path d="m40.03 0h-6c-1.381 0-2.5 1.119-2.5 2.5v1h1v-1c0-.828.672-1.5 1.5-1.5h2.5v41.5h1v-41.5h2.5c.828 0 1.5.672 1.5 1.5v1h1v-1c0-1.381-1.119-2.5-2.5-2.5z" fill="#9eafc6" data-original="#9eafc6" class=""></path><path d="m40 4.5v3.988c-.001.558.45 1.011 1.008 1.012h.003 1.989c.555-.005 1.001-.457 1-1.012v-3.988c0-.552-.448-1-1-1h-2c-.552 0-1 .448-1 1z" fill="#dde5f2" data-original="#dde5f2" class=""></path><path d="m40 7.5v1c0 .552.448 1 1 1h.008 1.994c.553-.004 1-.454 1-1.007v-2.993c-.93 1.277-2.422 2.023-4.002 2z" fill="#d6344c" data-original="#d6344c"></path><path d="m30 4.5v3.988c-.001.558.45 1.011 1.008 1.012h.003 1.989c.555-.005 1.001-.457 1-1.012v-3.988c0-.552-.448-1-1-1h-2c-.552 0-1 .448-1 1z" fill="#ff5c6d" data-original="#ff5c6d"></path><path d="m30 7.5v1c0 .552.448 1 1 1h.008 1.994c.553-.004 1-.454 1-1.007v-2.993c-.93 1.277-2.422 2.023-4.002 2z" fill="#d6344c" data-original="#d6344c"></path><path d="m39.03 43h-4c-.276 0-.5-.224-.5-.5s.224-.5.5-.5h4c.276 0 .5.224.5.5s-.224.5-.5.5z" fill="#9eafc6" data-original="#9eafc6" class=""></path><path d="m39.03 43h-4c-.276 0-.5-.224-.5-.5s.224-.5.5-.5h4c.276 0 .5.224.5.5s-.224.5-.5.5z" fill="#9eafc6" data-original="#9eafc6" class=""></path><path d="m10.03 33.501h2v4h-2z" fill="#dde5f2" data-original="#dde5f2" class=""></path><path d="m10.03 33.501h2v1h-2z" fill="#9eafc6" data-original="#9eafc6" class=""></path><path d="m22.03 33.501h2v4h-2z" fill="#dde5f2" data-original="#dde5f2" class=""></path><path d="m22.03 33.501h2v1h-2z" fill="#9eafc6" data-original="#9eafc6" class=""></path><path d="m27.03 40.5h-2v-1c0-.552-.448-1-1-1h-14c-.552 0-1 .448-1 1v1h-2v-1c0-1.657 1.343-3 3-3h14c1.657 0 3 1.343 3 3z" fill="#dde5f2" data-original="#dde5f2" class=""></path><path d="m10.03 36.5c-1.655.005-2.995 1.345-3 3v1h1c-.207-1.45.801-2.793 2.251-3 .248-.035.501-.035.749 0 3.26 0 13-1 13-1z" fill="#9eafc6" data-original="#9eafc6" class=""></path><path d="m31.1 29.5h-30.107c-.547.001-.992-.441-.993-.989 0-.009 0-.019 0-.028l.054-2.019c.015-.536.454-.963.99-.963h29.056c.377 0 .746-.109 1.063-.313l11.333-7.1c.457-.294 1.066-.162 1.36.295.01.016.02.032.029.048l.987 1.726c.266.465.121 1.058-.331 1.347l-12.393 7.69c-.313.199-.677.305-1.048.306z" fill="#42c3fc" data-original="#42c3fc" class=""></path><path d="m32.46 27.771c-.307.198-.665.302-1.03.3h-29.43c-.541-.005-.976-.448-.97-.989 0-.007 0-.014 0-.021l.04-1.56h-.02c-.536-.002-.976.424-.99.96l-.06 2.02c-.011.552.429 1.008.981 1.019h.009 30.1c.376-.001.743-.109 1.06-.31l12.39-7.69z" fill="#1aa9e8" data-original="#1aa9e8" class=""></path><path d="m5.03 19.501h22c1.105 0 2 .895 2 2 0 1.105-.895 2-2 2h-22c-1.105 0-2-.895-2-2 0-1.105.895-2 2-2z" fill="#dde5f2" data-original="#dde5f2" class=""></path><path d="m28.85 22.321c-.322.717-1.034 1.178-1.82 1.18h-22c-1.101-.008-1.992-.899-2-2 .002-.786.463-1.498 1.18-1.82-.121.256-.182.537-.18.82.008 1.101.899 1.992 2 2h22c.283.002.564-.059.82-.18z" fill="#9eafc6" data-original="#9eafc6" class=""></path><path d="m38.743 12.815-6.87 4.244c-.931.594-1.205 1.83-.611 2.762.594.931 1.831 1.204 2.762.61l6.87-4.244c.931-.594 1.204-1.83.611-2.761-.594-.931-1.83-1.205-2.762-.611z" fill="#dde5f2" data-original="#dde5f2" class=""></path><path d="m41.81 14.378c.045.726-.307 1.419-.92 1.81l-6.87 4.24c-.927.595-2.16.325-2.755-.602-.384-.598-.42-1.356-.095-1.988.012.341.116.673.3.96.369.575 1.006.922 1.69.92.382 0 .756-.108 1.08-.31l6.87-4.25c.301-.191.543-.461.7-.78z" fill="#9eafc6" data-original="#9eafc6" class=""></path><path d="m4.03 29.5v2.265c-.008.948.752 1.724 1.7 1.735h22.597c.948-.011 1.708-.787 1.7-1.735v-2.265z" fill="#1c8ae5" data-original="#1c8ae5" class=""></path><path d="m6.03 30.5v.27c-.007.947.754 1.72 1.7 1.73l21 .94c-.129.041-.264.061-.4.06h-22.6c-.946-.01-1.707-.783-1.7-1.73v-2.27h25.997v1z" fill="#1e6ee2" data-original="#1e6ee2" class=""></path><path d="m8.03 43.5c-1.105 0-2-.895-2-2s.895-2 2-2 2 .895 2 2-.895 2-2 2z" fill="#dde5f2" data-original="#dde5f2" class=""></path><path d="m9.03 42.5c-1.103-.003-1.997-.897-2-2-.002-.283.059-.564.18-.82-1.009.449-1.464 1.631-1.015 2.64s1.631 1.464 2.64 1.015c.452-.201.814-.563 1.015-1.015-.256.121-.537.182-.82.18z" fill="#9eafc6" data-original="#9eafc6" class=""></path><path d="m26.03 43.5c-1.105 0-2-.895-2-2s.895-2 2-2 2 .895 2 2-.895 2-2 2z" fill="#dde5f2" data-original="#dde5f2" class=""></path><path d="m27.03 42.5c-1.103-.003-1.997-.897-2-2-.002-.283.059-.564.18-.82-1.009.449-1.464 1.631-1.015 2.64s1.631 1.464 2.64 1.015c.452-.201.814-.563 1.015-1.015-.256.121-.537.182-.82.18z" fill="#9eafc6" data-original="#9eafc6" class=""></path></g></g></g></svg>