<svg xmlns="http://www.w3.org/2000/svg" version="1.1" xmlns:xlink="http://www.w3.org/1999/xlink" xmlns:svgjs="http://svgjs.com/svgjs" width="512" height="512" x="0" y="0" viewBox="0 0 64 64" style="enable-background:new 0 0 512 512" xml:space="preserve" class=""><g transform="matrix(-1,0,0,1,64,0)"><g xmlns="http://www.w3.org/2000/svg" id="_24-Microscope" data-name="24-Microscope"><path d="m17 59 5.463-10.925a5.561 5.561 0 0 1 4.975-3.075 5.562 5.562 0 0 1 5.562 5.562v8.438z" fill="#ff223d" data-original="#006fdb" class=""></path><g fill="#2b2b37"><circle cx="28" cy="50" r="2" fill="#3f0f33" data-original="#2b2b37" class=""></circle><path d="m24.73 30a2 2 0 1 1 -1.73-1 1.995 1.995 0 0 1 1.73 1z" fill="#3f0f33" data-original="#2b2b37" class=""></path><path d="m24 19a2.995 2.995 0 0 1 .97 5.83 2.826 2.826 0 0 1 -.97.17 3 3 0 0 1 -3-3 2.955 2.955 0 0 1 .15-.95 3.028 3.028 0 0 1 1.31-1.63 3.087 3.087 0 0 1 1.54-.42z" fill="#3f0f33" data-original="#2b2b37" class=""></path></g><path d="m46 47 1 3-9 4-1-3z" fill="#36444f" data-original="#edf4fa" class=""></path><path d="m24.97 24.83 2.4 5.17h-2.64a2 2 0 0 0 -3.73 1l-1.25.94a6.872 6.872 0 0 0 -2.75 5.5 6.5 6.5 0 0 0 .11 1.24c.37 1.95 1.78 7.5 5.89 8.32l.09.09a5.852 5.852 0 0 0 -.63.98l-2.46 4.93s-10-5-10-19c0-8 6-13 6-13h5l.15.05a2.955 2.955 0 0 0 -.15.95 3 3 0 0 0 3 3 2.826 2.826 0 0 0 .97-.17z" fill="#36444f" data-original="#edf4fa" class=""></path><path d="m45.66 41.28a.944.944 0 0 1 -.44 1.25l-5 2.38a.906.906 0 0 1 -1.22-.45l-.68-1.48 6.7-3.12z" fill="#a8b7d4" data-original="#a8b7d4" class=""></path><path d="m45.02 39.86-6.7 3.12-4.32 2.02-1.31-3.21 15.12-6.81 1.19 3.02z" fill="#ff223d" data-original="#006fdb" class=""></path><path d="m24.03 1 3.44 7.42-5.53 2.6-3.44-7.42z" fill="#514c68" data-original="#393d48" class=""></path><path d="m36.06 26.98 3.44 7.42-5.53 2.6-3.44-7.42z" fill="#514c68" data-original="#393d48" class=""></path><path d="m54 63h-40a4.025 4.025 0 0 1 1.17-2.83 4.1 4.1 0 0 1 1.86-1.05 3.906 3.906 0 0 1 .97-.12h32a4 4 0 0 1 4 4z" fill="#514c68" data-original="#393d48" class=""></path><path d="m24.97 24.83a2.995 2.995 0 0 0 -.97-5.83 3.087 3.087 0 0 0 -1.54.42l-3.29-7.1 2.77-1.3 5.53-2.6 2.76-1.29 8.6 18.55-2.77 1.3-5.53 2.6-2.76 1.29-.4-.87z" fill="#ff223d" data-original="#006fdb" class=""></path><path d="m24.838 8.212a2 2 0 0 1 -2.626-1.05l-1.893-4.417-1.819.855 3.44 7.42 5.53-2.6-.517-1.114z" fill="#3f0f33" data-original="#2b2b37" class=""></path><path d="m34.687 30.157 2.313-1.157-.94-2.02-5.53 2.6 3.44 7.42 1.333-.627-1.56-3.64a2 2 0 0 1 .944-2.576z" fill="#3f0f33" data-original="#2b2b37" class=""></path><path d="m35.391 24.55a6 6 0 0 1 -7.912-2.908l-5.1-10.83-.442.208-2.77 1.3 3.29 7.1a3.087 3.087 0 0 1 1.543-.42 2.995 2.995 0 0 1 .97 5.83l2.4 5.17.4.87 2.76-1.29 5.53-2.6 2.77-1.3-1.03-2.225z" fill="#c5152a" data-original="#004080" class=""></path><path d="m31 15a1 1 0 0 1 -.9-.553l-2-4a1 1 0 0 1 1.79-.894l2 4a1 1 0 0 1 -.89 1.447z" fill="#02b9f2" data-original="#02b9f2" class=""></path><path d="m36.867 41.629a1 1 0 0 1 -1.289-.472l-.272-.545-2.616 1.178 1.31 3.21 4.32-2.02 6.7-3.12 3.98-1.86-.595-1.509z" fill="#c5152a" data-original="#004080" class=""></path><path d="m41.913 42.15 3.448-1.533-.341-.757-6.7 3.12.68 1.48a.906.906 0 0 0 1.22.45l.619-.295a1.993 1.993 0 0 1 1.074-2.465z" fill="#8698ba" data-original="#8698ba" class=""></path><path d="m41.007 51.553a1 1 0 0 1 -1.355-.6l-.329-.987-2.323 1.034 1 3 9-4-.323-.968z" fill="#c1cfe8" data-original="#c1cfe8" class=""></path><circle cx="24" cy="22" fill="#8394b2" r="2" data-original="#8394b2" class=""></circle><circle cx="23" cy="31" fill="#8394b2" r="1" data-original="#8394b2" class=""></circle><circle cx="28" cy="50" fill="#8394b2" r="1" data-original="#8394b2" class=""></circle><path d="m30.779 57h-3.332c-3.17 0-5.32-2.9-4.1-5.538l2.136-4.616a3.3 3.3 0 0 1 2.569-1.811 5.652 5.652 0 0 0 -.614-.035 5.561 5.561 0 0 0 -4.975 3.075l-5.463 10.925h16v-4a2.119 2.119 0 0 1 -2.221 2z" fill="#c5152a" data-original="#004080" class=""></path><path d="m52.691 60.058a1.992 1.992 0 0 1 -1.691.942h-30a1 1 0 0 1 0-2h-3a3.906 3.906 0 0 0 -.97.12 4.1 4.1 0 0 0 -1.86 1.05 4.025 4.025 0 0 0 -1.17 2.83h40a3.975 3.975 0 0 0 -1.309-2.942z" fill="#3f0f33" data-original="#2b2b37" class=""></path><path d="m24.97 24.83a2.826 2.826 0 0 1 -.97.17 3 3 0 0 1 -3-3 2.955 2.955 0 0 1 .15-.95l-.15-.05h-5l2.188 4.377a2.009 2.009 0 0 1 -.6 2.487c-1.476 1.149-3.588 3.586-3.588 8.136a16.936 16.936 0 0 0 3.136 9.947 2.019 2.019 0 0 1 .028 2.306l-1.109 1.665a16.612 16.612 0 0 0 3.945 3.082l2.46-4.93a5.852 5.852 0 0 1 .63-.98l-.09-.09c-4.11-.82-5.52-6.37-5.89-8.32a6.5 6.5 0 0 1 -.11-1.24 6.872 6.872 0 0 1 2.75-5.5l1.25-.94a2 2 0 0 1 3.73-1h2.64z" fill="#c1cfe8" data-original="#c1cfe8" class=""></path><path d="m49.913 34.038a1 1 0 0 0 -1.322-.5l-19 8.554a1 1 0 0 0 -.591.908v2.226a5.567 5.567 0 0 1 1.95 1.024.982.982 0 0 0 .05-.25v-2.354l18.409-8.286a1 1 0 0 0 .504-1.322z" fill="#c1cfe8" data-original="#c1cfe8" class=""></path><path d="m46.406 47.914a1 1 0 1 0 -.812-1.828l-12.594 5.597v2.189z" fill="#8394b2" data-original="#8394b2" class=""></path></g></g></svg>