<svg xmlns="http://www.w3.org/2000/svg" version="1.1" xmlns:xlink="http://www.w3.org/1999/xlink" xmlns:svgjs="http://svgjs.com/svgjs" width="512" height="512" x="0" y="0" viewBox="0 0 54 54" style="enable-background:new 0 0 512 512" xml:space="preserve" class=""><g><g xmlns="http://www.w3.org/2000/svg"><g><g><g><path d="m22.74 17.93-.32 4.13 3-.81.24-3.09z" fill="#ffcc99" data-original="#ffcc99" class=""></path><path d="m24.02 19.77c-.64.54-3.21 1.39-3.38-.69s.42-4.09.42-4.09l3.02-.09 1.07.32.13 1.29-.06 1.29c-.01.01-.46 1.35-1.2 1.97z" fill="#ffcc99" data-original="#ffcc99" class=""></path><path d="m25.58 19.13s-.95.27-1.21-.42c0 0 1.08-1.59.19-1.84s-.52 1.37-.52 1.37l-.53-.03s0-1.24-.35-1.67c-.35-.42-6-1.58-.11-3.2 5.35-1.47 2.53 5.79 2.53 5.79z" fill="#3c3c3a" data-original="#3c3c3a" class=""></path><path d="m25.77 20.92-.19-1.05c-1.67.44-2.17.68-3.44 1.2l-.12 1.62 3.08-.01z" fill="#ff223d" data-original="#fcb040" class=""></path><path d="m18.4 32.27 6.8 1.2c.03-1.41-.14-2.43-.02-3.34.13-.95.56-3.03.89-4.51.25-1.11.25-2.27-.01-3.38l-.3-1.32-2.51.43c-.93.16-1.75.71-2.24 1.52l-.72 1.18c-.88 1.44-1.41 3.06-1.57 4.74z" fill="#ff223d" data-original="#fcb040" class=""></path><g fill="#f93"><path d="m18.63 29.8-.07.78c.98.15 1.96.34 3.04.08.62-.21.95-.69 1.27-1.11.31-.44.58-.9.82-1.36.48-.94.91-1.9 1.28-2.88-.46.94-.96 1.86-1.51 2.74-.28.44-.59.86-.92 1.25-.32.38-.69.76-1.1.85-.84.14-1.86-.12-2.81-.35z" fill="#e1001b" data-original="#ff9933" class=""></path><path d="m18.94 27.43c-.05.21-.09.43-.12.64l1.11-.06.17-.01.06-.11 2.08-3.97-2.42 3.57z" fill="#e1001b" data-original="#ff9933" class=""></path></g><path d="m16.08 29.19s-1.42-.24-1.88.42c-.45.66-1.1 1.32-1.61.55s.06-1.63.67-1.94 2.45-.13 2.45-.13z" fill="#ffcc99" data-original="#ffcc99" class=""></path><path d="m22.23 23.92-2.29 3.84-4.79-.04.26 1.6s4.89 1.65 6.3 1.03c1.43-.63 3.27-5.05 3.27-5.05" fill="#ff223d" data-original="#fcb040" class=""></path></g><g><path d="m3.13 44.4 4.77 1.1.55-2.38-1.8-.73-.45 1.04-1.88.02c-.57 0-1.06.39-1.19.95z" fill="#9b4b3e" data-original="#9b4b3e" class=""></path><g><path d="m3.11 44.53 4.77 1.1c.07.02.15-.03.16-.1s-.03-.15-.1-.16l-4.77-1.1c-.08-.02-.15.03-.17.1-.01.07.03.15.11.16z" fill="#8f402f" data-original="#8f402f" class=""></path></g><path d="m6.16 43.17c.29-2.28 1.94-7.82 3.63-9.74 1.39-1.59 8.29-1.4 8.29-1.4l-1.17 4.28-4.49.02s-3.13 3.97-3.8 7.16z" fill="#324448" data-original="#389bc2" class=""></path></g><path d="m26.38 29.46v7.49h-11.81v-4.07c1.89 0 3.41-1.53 3.41-3.41h8.4z" fill="#514c68" data-original="#525066" class=""></path><g><path d="m8.66 46.01c-.06 0-.11-.01-.17-.04-.2-.09-.3-.33-.2-.54l3.91-8.65c.07-.15.21-.24.37-.24h13.41v-12.32c0-.22.18-.41.41-.41h4.94c.22 0 .41.18.41.41s-.18.41-.41.41h-4.53v12.32c0 .22-.18.41-.41.41h-13.56l-3.8 8.41c-.07.15-.22.24-.37.24z" fill="#ced1c3" data-original="#ced1c3" class=""></path></g><g><path d="m13.69 39.9h5.26v1.22h-5.26z" fill="#ced1c3" data-original="#ced1c3" class=""></path></g><g><path d="m13.69 43.71c-.22 0-.41-.18-.41-.41v-4.18c0-.05.01-.1.03-.15l.85-2.1v-6.27c0-.85.69-1.54 1.54-1.54h10.67c.22 0 .41.18.41.41 0 .22-.18.41-.41.41h-10.66c-.4 0-.73.33-.73.73v6.35c0 .05-.01.1-.03.15l-.85 2.1v4.1c0 .22-.18.4-.41.4z" fill="#dcdfd4" data-original="#dcdfd4" class=""></path></g><path d="m16.21 45.83c0 1.39-1.13 2.52-2.52 2.52s-2.52-1.13-2.52-2.52c0-1.4 1.13-2.52 2.52-2.52 1.39-.01 2.52 1.12 2.52 2.52z" fill="#48cdd5" data-original="#324448" class=""></path><path d="m15.3 45.83c0 .89-.72 1.61-1.61 1.61s-1.61-.72-1.61-1.61.72-1.61 1.61-1.61 1.61.71 1.61 1.61z" fill="#243538" data-original="#243538" class=""></path><path d="m14.6 45.83c0 .5-.41.91-.91.91s-.91-.41-.91-.91.41-.91.91-.91.91.4.91.91z" fill="#dcdfd4" data-original="#dcdfd4" class=""></path><g><g fill="#ced1c3"><path d="m26.24 32.8h.57v15.14h-.57z" fill="#ced1c3" data-original="#ced1c3" class=""></path><path d="m26.24 32.8h.57v15.14h-.57z" transform="matrix(.866 -.5 .5 .866 -16.632 18.672)" fill="#ced1c3" data-original="#ced1c3" class=""></path><path d="m26.24 32.8h.57v15.14h-.57z" transform="matrix(.5 -.866 .866 .5 -21.699 43.159)" fill="#ced1c3" data-original="#ced1c3" class=""></path><path d="m18.96 40.09h15.14v.57h-15.14z" fill="#ced1c3" data-original="#ced1c3" class=""></path><path d="m18.96 40.09h15.14v.57h-15.14z" transform="matrix(.866 -.5 .5 .866 -16.633 18.674)" fill="#ced1c3" data-original="#ced1c3" class=""></path><path d="m18.96 40.09h15.14v.57h-15.14z" transform="matrix(.5 -.866 .866 .5 -21.699 43.156)" fill="#ced1c3" data-original="#ced1c3" class=""></path></g><g><path d="m26.53 48.35c-4.4 0-7.98-3.58-7.98-7.98s3.58-7.98 7.98-7.98 7.98 3.58 7.98 7.98-3.59 7.98-7.98 7.98zm0-15.14c-3.95 0-7.16 3.21-7.16 7.16s3.21 7.16 7.16 7.16 7.16-3.21 7.16-7.16-3.21-7.16-7.16-7.16z" fill="#48cdd5" data-original="#324448" class=""></path></g><path d="m28.11 40.37c0 .88-.71 1.59-1.59 1.59s-1.59-.71-1.59-1.59.71-1.59 1.59-1.59 1.59.71 1.59 1.59z" fill="#48cdd5" data-original="#324448" class=""></path></g><g><path d="m9.04 45.67c0-.25-.17-.46-.41-.51l-4.11-.92c-.28-.06-.57.12-.63.4-.02.08-.02.15 0 .22.04.2.19.36.4.41l4.11.92c.32.07.64-.18.64-.52z" fill="#48cdd5" data-original="#324448" class=""></path></g></g><path d="m31.73 23.51h-3.6c-.09 0-.16.07-.16.16v1.11c0 .09.07.16.16.16h3.6c.4 0 .72-.32.72-.72 0-.39-.33-.71-.72-.71z" fill="#48cdd5" data-original="#324448" class=""></path></g><g><g><path d="m35.33 48.19h5.78v-2.89l-2.5-.32v1.27l-2.16.52c-.66.16-1.12.74-1.12 1.42z" fill="#9b4b3e" data-original="#9b4b3e" class=""></path><g><path d="m35.33 48.35h5.77c.09 0 .16-.07.16-.16s-.07-.16-.16-.16h-5.77c-.09 0-.16.07-.16.16s.07.16.16.16z" fill="#8f402f" data-original="#8f402f" class=""></path></g><path d="m38.35 45.92c-.26-2.56-.77-5.21-1.51-7.94-.08-.31-.14-.63-.15-.95l-.53-9.17 5.08.66c.11 2.66-.13 5.46-1.16 8.35.59 3.23 1.25 6.26 1.17 8.78z" fill="#48cdd5" data-original="#26373a" class=""></path></g><g><path d="m44.95 48.22h2.66l3.26-2.78c-.59-1.69-1.59-2.57-1.59-2.57l-2.17 1.27.13.39c.05.15.08.32.08.49 0 .36-.12.71-.35 1-.15.19-.35.34-.58.44-.46.21-1.26.6-1.45.92-.09.18.01.84.01.84z" fill="#9b4b3e" data-original="#9b4b3e" class=""></path><g><path d="m44.95 48.34h2.71l.04-.03 3.26-2.78c.06-.04.06-.13.02-.18-.04-.06-.13-.06-.18-.02l-3.22 2.75h-2.61c-.07 0-.13.06-.13.13-.02.08.04.13.11.13z" fill="#8f402f" data-original="#8f402f" class=""></path></g></g><path d="m37.56 10.82.41 4 2.72-1.3-.31-2.99z" fill="#ffcc99" data-original="#ffcc99" class=""></path><path d="m39.12 12.08c-.52.62-2.82 1.89-3.35-.07s-.32-3.98-.32-3.98l2.87-.62 1.08.12.35 1.21.17 1.24c-.01.01-.2 1.38-.8 2.1z" fill="#ffcc99" data-original="#ffcc99" class=""></path><path d="m40.5 11.19s-.86.42-1.23-.19c0 0 .75-1.7-.14-1.79-.9-.08-.26 1.4-.26 1.4l-.51.06s-.22-1.19-.63-1.53-6-.45-.67-3.03c4.86-2.34 3.44 5.08 3.44 5.08z" fill="#3c3c3a" data-original="#3c3c3a" class=""></path><path d="m40.97 13.14-.36-.97c-1.52.72-1.95 1.03-3.07 1.75l.17 1.56 2.93-.55z" fill="#48cdd5" data-original="#b2d6e2" class=""></path><path d="m47.09 44.64c-1.78-2.17-3.85-4.06-6.25-5.67-.67-.45-1.27-1.02-1.67-1.72-1.29-2.3-2.47-6.68-3.02-9.39l6.65-.04c.14 1.23.07 2.26-.39 2.88-.4.55-.54 1.27-.48 1.95.07.91.28 1.75.61 2.53.25.59.69 1.09 1.25 1.41 2.05 1.18 4.02 3.46 5.94 6.35z" fill="#48cdd5" data-original="#324448" class=""></path><path d="m36.16 27.86-.53-5.97c-.14-1.63.08-3.27.67-4.8l.48-1.25c.33-.86 1.01-1.53 1.87-1.85l2.32-.85.52 1.2c.44 1.02.64 2.12.6 3.23-.05 1.48-.11 3.54-.06 4.47.07 1.37.86 2.85.78 5.78z" fill="#48cdd5" data-original="#b2d6e2" class=""></path><path d="m37.21 18.3c-.2.71-.35 1.43-.49 2.16l-.03.14.15.06c1.02.39 2.06.74 3.1 1.05l.22.07.03-.21c.14-.89.27-1.78.34-2.68-.29.86-.51 1.73-.73 2.6l.25-.15c-1.03-.37-2.06-.72-3.12-1.02l.12.19c.09-.74.16-1.47.16-2.21z" fill="#91bdc9" data-original="#91bdc9" class=""></path><path d="m39.53 20.86-2.29-.68-.42 1.9-4.61 1.26s-1.92-.72-2.07-.11c-.15.6-.6 1.51.57 1.59 1.17.07 1.59-.32 1.59-.32s4.83.48 6.21-.59c.63-.49 1.02-3.05 1.02-3.05z" fill="#ffcc99" data-original="#ffcc99" class=""></path><path d="m40.01 21.51.53-2.64c.19-.93-.43-1.84-1.36-2-.94-.17-1.83.48-1.97 1.42l-.31 2.18z" fill="#48cdd5" data-original="#b2d6e2" class=""></path></g></g></g></svg>