<svg xmlns="http://www.w3.org/2000/svg" version="1.1" xmlns:xlink="http://www.w3.org/1999/xlink" xmlns:svgjs="http://svgjs.com/svgjs" width="512" height="512" x="0" y="0" viewBox="0 0 512 512" style="enable-background:new 0 0 512 512" xml:space="preserve" class=""><g transform="matrix(-1,0,0,1,511.99867248535156,0)"><g xmlns="http://www.w3.org/2000/svg"><path d="m234.389 167.532-83.174 132.407v-246.562c0-22.968 18.619-41.587 41.587-41.587s41.587 18.619 41.587 41.587z" fill="#5d3b55" data-original="#596c76" class=""></path><path d="m346.649 141.598c-2.406-5.156-2.628-11.065-.614-16.387l14.295-37.779-41.99-18.016c-21.58-9.259-45.819-10.221-68.065-2.703l-18.905 6.39.443 3.147c3.038 21.602-1.728 43.579-13.442 61.982l-28.22 44.338 15.211 79.049 52.878-83.066c1.615-2.537 5.004-3.254 7.498-1.574 14.066 9.474 30.905 15.581 42.884 14.492 16.473-1.498 34.146-25.794 40.52-35.392 1.555-2.342 1.784-5.32.595-7.867z" fill="#ffcebf" data-original="#ffcebf" class=""></path><path d="m366.892 436.916c0 29.339-12.776 55.696-33.07 73.804-.935.835-2.155 1.281-3.409 1.281h-181.574c-1.435 0-2.698-.984-3.014-2.383-5.076-22.444-3.417-45.903 4.796-67.44l6.378-16.752c5.304-13.924 15.079-27.903 15.079-42.561 0-14.987-9.902-30.653-15.451-44.853-15.646-40.008-11.256-85.097 11.82-121.342l21.704-34.099c6.537 2.073 12.67 5.612 17.9 10.566l80.697 76.541c13.371 12.681 15.965 33.291 5.591 48.522-3.944 5.791-9.048 11.289-15.616 15.367-2.237 1.389-1.445 4.842 1.169 5.156 49.015 5.869 87 47.597 87 98.193z" fill="#486dd5" data-original="#fe76a8" class=""></path><path d="m279.892 338.722c-2.614-.313-3.406-3.767-1.169-5.156 6.567-4.078 11.671-9.577 15.616-15.367 10.374-15.232 7.781-35.842-5.591-48.522l-80.697-76.541c-5.23-4.953-11.363-8.493-17.9-10.566l-5.289 8.31c.881.72 1.749 1.463 2.585 2.256l80.697 76.54c13.372 12.681 15.965 33.29 5.591 48.522-3.944 5.79-9.048 11.289-15.616 15.367-2.237 1.389-1.445 4.843 1.169 5.156 49.015 5.87 87.001 47.599 87.001 98.194 0 29.339-12.776 55.696-33.07 73.804-.935.835-2.155 1.281-3.409 1.281h20.604c1.253 0 2.474-.446 3.409-1.281 20.294-18.107 33.07-44.465 33.07-73.804-.001-50.595-37.986-92.323-87.001-98.193z" fill="#3f45bd" data-original="#fe5694" class=""></path><path d="m384.338 54.075c-8.178-47.871-80.655-68.431-112.473-43.271-75.109-5.942-87.636 70.563-68.846 97.854 10.432 15.152 24.478 22.989 35.891 24.25 1.772.196 3.123-1.49 2.686-3.218-1.284-5.073-1.058-10.82 1.012-16.417 4.829-13.061 17.788-20.305 28.945-16.18 8.31 3.073 13.273 11.588 13.269 21.13-.001 1.614 1.202 2.975 2.789 3.268 81.835 15.142 102.803-31.843 96.727-67.416z" fill="#5d3b55" data-original="#7a8c98" class=""></path><path d="m384.338 54.075c-6.39-37.405-52.037-58.135-86.87-53.409 30.104 3.726 61.087 23.085 66.267 53.409 4.955 29.004-8.076 65.589-57.411 69.906 66.337 5.103 83.598-37.217 78.014-69.906z" fill="#5d3b55" data-original="#596c76" class=""></path><path d="m275.421 336.206-18.666 20.423c-5.121 5.603-3.957 14.468 2.436 18.559 3.75 2.4 8.508 2.573 12.422.453 3.45-1.869 7.471-2.373 11.274-1.406 6.099 1.551 15.881 3.818 23.458 5.546 6.535 1.49 13.287-1.349 16.789-7.064 2.248-3.669 4.864-7.943 7.321-11.962 5.068-8.293 1.715-19.15-7.147-23.14l-17.202-7.745c-10.523-4.738-22.899-2.183-30.685 6.336z" fill="#ffcebf" data-original="#ffcebf" class=""></path><path d="m322.897 373.07c.077-.119.162-.232.236-.353 2.248-3.669 4.864-7.943 7.321-11.962 5.068-8.293 1.715-19.151-7.147-23.14l-17.202-7.745c-10.523-4.738-22.899-2.182-30.685 6.336l-4.294 4.698c20.535 5.058 38.535 16.525 51.771 32.166z" fill="#ffb09e" data-original="#ffb09e"></path><path d="m214.553 270.746c8.09-9.817 6.437-24.384-3.647-32.139-9.66-7.429-23.479-5.814-31.167 3.641l-90.2 110.936c-7.286 8.961-6.19 22.077 2.482 29.704l67.243 59.146 20.691-2.884.459-26.3-42.349-41.29c-2.066-2.014-2.243-5.275-.409-7.502z" fill="#486dd5" data-original="#fe76a8" class=""></path><path d="m210.644 476.01 34.332-6.919c7.781-1.563 13.637-8.014 14.434-15.912 1.148-11.288-2.668-22.523-10.47-30.761-3.72-3.933-9.439-5.219-14.477-3.263l-30.027 11.639c-2.445.946-5.219.383-7.1-1.446l-16.921-16.498c-3.388 4.644-18.17 25.058-21.15 29.185l33.044 29.065c5.016 4.41 11.798 6.228 18.335 4.91z" fill="#ffcebf" data-original="#ffcebf" class=""></path><path d="m193.906 238.607c10.084 7.755 11.737 22.322 3.647 32.139l-76.896 93.312c-1.835 2.227-1.657 5.488.409 7.502 8.507 8.294 39.494 38.518 59.064 57.603l.285-16.313-42.349-41.29c-2.066-2.014-2.243-5.275-.409-7.502l76.896-93.312c8.09-9.817 6.437-24.384-3.647-32.139-6.565-5.049-15.048-5.91-22.226-2.982 1.827.745 3.589 1.723 5.226 2.982z" fill="#3f45bd" data-original="#fe5694" class=""></path><path d="m248.94 422.417c-3.72-3.933-9.439-5.219-14.477-3.263l-30.027 11.639c-2.445.946-5.219.383-7.1-1.446l-16.921-16.498c-1.225 1.68-3.943 5.425-7.052 9.713 7.145 6.968 13.457 13.123 17.703 17.263 1.881 1.828 4.656 2.392 7.1 1.446l30.027-11.639c5.038-1.956 10.839-.746 14.477 3.263 6.654 7.333 10.327 15.053 9.179 26.341-.327 3.237-1.515 6.223-3.326 8.738 5.961-2.549 10.217-8.155 10.887-14.796 1.148-11.288-2.668-22.523-10.47-30.761z" fill="#ffb09e" data-original="#ffb09e"></path><g fill="#d4f2f6"><path d="m419.552 441.624h-15.872c-4.267 0-7.726-3.459-7.726-7.726s3.459-7.726 7.726-7.726h15.872c4.267 0 7.726 3.459 7.726 7.726.001 4.266-3.458 7.726-7.726 7.726z" fill="#dd3270" data-original="#d4f2f6" class=""></path><path d="m409.085 491.017c-2.073 0-4.139-.829-5.661-2.467l-10.805-11.627c-2.905-3.126-2.726-8.014.4-10.919 3.125-2.906 8.014-2.725 10.919.4l10.805 11.627c2.905 3.126 2.726 8.014-.4 10.919-1.488 1.382-3.376 2.067-5.258 2.067z" fill="#dd3270" data-original="#d4f2f6" class=""></path><path d="m398.275 403.858c-1.883 0-3.77-.684-5.258-2.067-3.126-2.905-3.305-7.793-.4-10.919l10.805-11.627c2.904-3.126 7.793-3.306 10.919-.4 3.126 2.905 3.305 7.793.4 10.919l-10.805 11.627c-1.521 1.638-3.588 2.467-5.661 2.467z" fill="#dd3270" data-original="#d4f2f6" class=""></path></g></g></g></svg>