<svg xmlns="http://www.w3.org/2000/svg" version="1.1" xmlns:xlink="http://www.w3.org/1999/xlink" xmlns:svgjs="http://svgjs.com/svgjs" width="512" height="512" x="0" y="0" viewBox="0 0 96 96" style="enable-background:new 0 0 512 512" xml:space="preserve" class=""><g><g xmlns="http://www.w3.org/2000/svg" id="Surgery"><g fill="#b3c4d0"><path d="m63.24 72.44v12.42h-30.48v-12.42h7.64c0 1.84-.1 3.16 1 5a7.21 7.21 0 0 0 6.25 3.62h.78a7.22 7.22 0 0 0 7.21-7.21v-1.41z" fill="#b3c4d0" data-original="#b3c4d0" class=""></path><path d="m30.07 25.44-2.53 3-14.47-12.02c2.68-3.21 2.34-2.81 2.53-3 1.4 1.12 13.09 10.87 14.47 12.02z" fill="#b3c4d0" data-original="#b3c4d0" class=""></path><path d="m19.75 1.05c-2.65 9.11-1.83 6.26-3.69 12.68l-3.79-1.11c1.9-6.57 1.13-3.92 3.37-11.62z" fill="#b3c4d0" data-original="#b3c4d0" class=""></path></g><path d="m19.77 16.85a6.63 6.63 0 0 1 -2.63 3l-4.07-3.39 2.39-2.87-3.19-.93 1.51-5.26a6.6 6.6 0 0 1 3.76 1.23c-1.64 5.66-1.44 5.11-1.54 5.08z" fill="#a4abc1" data-original="#a4abc1" class=""></path><path d="m30.07 25.44-2.53 3-6.31-5.26a13.68 13.68 0 0 1 3.41-2.31z" fill="#a4abc1" data-original="#a4abc1" class=""></path><path d="m81.92 21.86-18.16 5-1-3.81 18.16-5c.21.95.01.25 1 3.81z" fill="#b3c4d0" data-original="#b3c4d0" class=""></path><path d="m83.73 18-3.79 1.11c-.52-1.77.86 2.94-5.25-18.08l4.1-.03c4.21 14.33 3.04 10.45 4.94 17z" fill="#b3c4d0" data-original="#b3c4d0" class=""></path><path d="m70.15 25.11-6.39 1.77-1-3.81 5-1.38a13.69 13.69 0 0 1 2.39 3.42z" fill="#a4abc1" data-original="#a4abc1" class=""></path><path d="m81.07 18.8.85 3.06-5.12 1.41a6.65 6.65 0 0 1 -1.17-3.76l4.09-1.13-1.26-4.38a6.6 6.6 0 0 1 3.76-1.23l1.51 5.23z" fill="#a4abc1" data-original="#a4abc1" class=""></path><path d="m40.4 72.44h-7.64v12.42h2.49v-5.26a2.15 2.15 0 0 1 2.15-2.16h4a8.7 8.7 0 0 1 -1-5z" fill="#818da3" data-original="#818da3"></path><path d="m55.6 72.44c0 1.84.1 3.16-1 5h3.83a2.15 2.15 0 0 1 2.15 2.16v5.26h2.62v-12.42z" fill="#818da3" data-original="#818da3"></path><path d="m63.93 72.44h-31.86a1.86 1.86 0 0 1 -1.84-2.17c.48-2.82.17-1 1.53-9h32.48l1.53 9a1.86 1.86 0 0 1 -1.84 2.17z" fill="#5c86c7" data-original="#5c86c7" class=""></path><path d="m65.41 68.16c-19.8 3.25-15 3.25-34.82 0l1.17-6.91h32.48z" fill="#5c54b3" data-original="#5c54b3" class=""></path><path d="m90.47 61-37.71 6.2a29.24 29.24 0 0 1 -9.52 0l-37.71-6.2a2.17 2.17 0 0 1 -1.82-2.15 2.17 2.17 0 0 1 2.18-2.17h84.22a2.17 2.17 0 0 1 .36 4.32z" fill="#a4abc1" data-original="#a4abc1" class=""></path><path d="m74.93 63.55c-1.83.36 6.45-1-22.17 3.65a29.24 29.24 0 0 1 -9.52 0l-17.17-2.82c-2.81-.47-2.32-4.64.48-4.64h47.94a1.93 1.93 0 0 1 .44 3.81z" fill="#b3c4d0" data-original="#b3c4d0" class=""></path><path d="m34.6 62.74h26.79c-15.06 2.48-11.72 2.48-26.79 0z" fill="#effbff" data-original="#effbff" class=""></path><path d="m91.65 60.38a2.13 2.13 0 0 0 -1.54-.64h-84.22a2.13 2.13 0 0 0 -1.54.64 2.17 2.17 0 0 1 1.54-3.7h84.22a2.17 2.17 0 0 1 1.54 3.7z" fill="#effbff" data-original="#effbff" class=""></path><path d="m66.32 89.68h-36.64l.79-3.53a1.67 1.67 0 0 1 1.62-1.29h31.82a1.67 1.67 0 0 1 1.62 1.29z" fill="#5c54b3" data-original="#5c54b3" class=""></path><path d="m57 89.68h-18l.39-3.53c.09-.76.42-1.29.8-1.29h15.62c.38 0 .71.53.8 1.29z" fill="#5c86c7" data-original="#5c86c7" class=""></path><path d="m80.4 95h-64.8l.89-2.56a4.12 4.12 0 0 1 3.89-2.76h55.24a4.12 4.12 0 0 1 3.89 2.76z" fill="#a4abc1" data-original="#a4abc1" class=""></path><path d="m61.39 95h-26.78l.39-2.56c.24-1.65.89-2.76 1.61-2.76h22.81c.72 0 1.37 1.11 1.61 2.76z" fill="#b3c4d0" data-original="#b3c4d0" class=""></path><path d="m79.11 91.62a4.15 4.15 0 0 0 -3.49-1.94h-55.24a4.15 4.15 0 0 0 -3.49 1.94z" fill="#effbff" data-original="#effbff" class=""></path><circle cx="13.68" cy="14.09" fill="#5c63a4" r="3.69" data-original="#5c63a4"></circle><path d="m67.13 37.53-15.65-15.65a11.41 11.41 0 0 1 15.65 15.65z" fill="#5c86c7" data-original="#5c86c7" class=""></path><path d="m67.13 37.53-11.42-11.42a11.35 11.35 0 0 1 6.29-1.6 7 7 0 0 1 6.69 6.7 11.46 11.46 0 0 1 -1.56 6.32z" fill="#4d63ae" data-original="#4d63ae"></path><rect fill="#5c63a4" height="4.1" rx="1.84" transform="matrix(.707 .707 -.707 .707 38.97 -31.78)" width="27.63" x="44.04" y="29.11" data-original="#5c63a4"></rect><rect fill="#484595" height="4.1" rx="1.84" transform="matrix(.707 .707 -.707 .707 42.96 -33.43)" width="16.37" x="53.65" y="33.09" data-original="#484595"></rect><rect fill="#848bc7" height="4.1" rx="1.84" transform="matrix(.707 .707 -.707 .707 35.9 -30.51)" width="9.89" x="49.83" y="26.03" data-original="#848bc7" class=""></rect><path d="m40.66 27.94-21.15 6.54a11.42 11.42 0 0 1 5-10 11.43 11.43 0 0 1 16.15 3.46z" fill="#5c86c7" data-original="#5c86c7" class=""></path><path d="m34.27 29.92-14.76 4.56a7.88 7.88 0 0 1 14.76-4.56z" fill="#4d63ae" data-original="#4d63ae"></path><path d="m42.73 31.59c-20.36 6.3-22.85 7.1-22.95 7.1a1.85 1.85 0 0 1 -2.23-1.24l-.12-.39a1.85 1.85 0 0 1 1.22-2.31l22.87-7.07a1.84 1.84 0 0 1 2.3 1.22l.12.39a1.83 1.83 0 0 1 -1.21 2.3z" fill="#5c63a4" data-original="#5c63a4"></path><path d="m31 35.23-11.22 3.46a1.85 1.85 0 0 1 -2.23-1.24l-.12-.39a1.85 1.85 0 0 1 1.22-2.31c11.34-3.51 11-3.43 11.11-3.43a1.85 1.85 0 0 1 2.29 1.22l.12.39a1.83 1.83 0 0 1 -1.17 2.3z" fill="#484595" data-original="#484595"></path><path d="m36.92 33.54-7.85 2.38a1.85 1.85 0 0 1 -2.23-1.24l-.12-.39a1.85 1.85 0 0 1 1.22-2.29c8-2.41 7.69-2.35 7.79-2.35a1.85 1.85 0 0 1 2.27 1.2l.12.39a1.83 1.83 0 0 1 -1.2 2.3z" fill="#848bc7" data-original="#848bc7" class=""></path><circle cx="82.32" cy="19.49" fill="#5c63a4" r="3.69" data-original="#5c63a4"></circle></g></g></svg>