<svg xmlns="http://www.w3.org/2000/svg" version="1.1" xmlns:xlink="http://www.w3.org/1999/xlink" xmlns:svgjs="http://svgjs.com/svgjs" width="512" height="512" x="0" y="0" viewBox="0 0 512 512" style="enable-background:new 0 0 512 512" xml:space="preserve" class=""><g><g xmlns="http://www.w3.org/2000/svg"><path d="m441.443 32.196-32.623 17.041c-43.636-31.914-96.272-49.237-150.961-49.237-68.38 0-132.667 26.629-181.02 74.98-48.352 48.353-74.98 112.64-74.98 181.02s26.629 132.667 74.98 181.02c48.353 48.351 112.64 74.98 181.02 74.98 17.376 0 31.462-14.086 31.462-31.462s-14.086-31.462-31.462-31.462c-106.462 0-193.076-86.614-193.076-193.076s86.614-193.076 193.076-193.076c30.209 0 59.586 7.006 86.073 20.208l-21.823 11.399c-22.919 11.972-24.282 44.264-2.454 58.125l113.639 72.162c21.825 13.859 50.47-1.103 51.563-26.934l5.694-134.497c1.095-25.833-26.189-43.163-49.108-31.191z" fill="#00b8f0" data-original="#b3e59f" class=""></path><g fill="#95d6a4"><path d="m422.746 58.722 50.282-26.265c-9.265-5.051-20.899-5.843-31.585-.261l-32.623 17.041c4.733 3.005 9.381 6.161 13.926 9.485z" fill="#48cdd5" data-original="#95d6a4" class=""></path><path d="m108.924 437.02c-48.352-48.353-74.98-112.64-74.98-181.02s26.629-132.667 74.98-181.02c44.562-44.561 102.662-70.652 165.024-74.473-5.339-.332-10.704-.507-16.089-.507-68.38 0-132.667 26.629-181.02 74.98-48.352 48.353-74.98 112.64-74.98 181.02s26.629 132.667 74.98 181.02c48.353 48.351 112.64 74.98 181.02 74.98 2.858 0 5.623-.388 8.255-1.102-59.384-5.446-114.499-31.188-157.19-73.878z" fill="#48cdd5" data-original="#95d6a4" class=""></path><path d="m465.379 224.819-113.639-72.162c-21.828-13.861-20.465-46.153 2.454-58.125l5.826-3.043c6.588-3.441 6.106-13.097-.832-15.761-21.876-8.401-45.299-12.803-69.244-12.803-5.403 0-10.752.235-16.044.672 24.534 2.029 48.26 8.684 70.033 19.536l-21.823 11.399c-22.919 11.972-24.282 44.264-2.454 58.125l113.639 72.162c11.089 7.042 23.933 6.632 34.035 1.148-.656-.359-1.307-.739-1.951-1.148z" fill="#48cdd5" data-original="#95d6a4" class=""></path></g><g><g><path d="m319.436 362.619c-.047 0-.092 0-.138 0-8.688-.075-15.671-7.178-15.595-15.866.069-8.047.14-16.971.208-26.275h-55.564c-5.565 0-10.717-2.941-13.546-7.733-2.83-4.793-2.916-10.723-.227-15.596 11.297-20.477 48.787-88.063 56.887-98.001 7.377-9.052 17.405-12.71 26.828-9.796 9.499 2.942 16.243 12.104 17.18 23.343.425 5.096.32 41.98.119 76.321h2.423c8.688 0 15.731 7.043 15.731 15.731s-7.043 15.731-15.731 15.731h-2.633c-.089 11.956-.17 21.6-.213 26.546-.076 8.641-7.106 15.595-15.729 15.595zm-44.359-73.603h29.042c.111-19.147.186-37.607.187-51.328-7.764 13.246-18.365 31.893-29.229 51.328z" fill="#e27a66" data-original="#e27a66" class=""></path></g><g><path d="m170.097 367.517c-27.395 0-29.443-.684-31.58-1.396-5.197-1.732-9.082-5.667-10.659-10.796-2.691-8.749 1.347-14.037 10.194-25.621 7.253-9.496 20.752-27.173 43.374-59.495 6.554-9.365 10.781-17.712 12.574-24.827l.452-3.536c-.454-11.073-9.605-19.942-20.787-19.942-9.921 0-18.506 7.046-20.413 16.754-1.674 8.525-9.945 14.078-18.468 12.405-8.526-1.674-14.079-9.942-12.405-18.468 4.797-24.425 26.366-42.153 51.286-42.153 28.82 0 52.267 23.447 52.267 52.267-.074 2.31-.697 6.797-1.112 9.076-2.598 11.206-8.526 23.475-17.616 36.464-15.29 21.846-26.496 37.131-34.462 47.767 12.839-.019 28.534-.14 43.314-.326 8.652-.084 15.818 6.845 15.928 15.532.109 8.687-6.845 15.818-15.532 15.928-20.534.259-35.453.367-46.355.367z" fill="#e27a66" data-original="#e27a66" class=""></path></g><g fill="#dd636e"><g><path d="m251.074 312.745c-2.83-4.793-2.916-10.723-.227-15.596 11.297-20.477 48.787-88.063 56.887-98.001 3.57-4.381 7.764-7.485 12.207-9.206-.542-.217-1.092-.416-1.654-.59-9.422-2.915-19.451.744-26.828 9.796-8.1 9.938-45.589 77.523-56.887 98.001-2.688 4.873-2.602 10.804.227 15.596 2.83 4.793 7.981 7.733 13.546 7.733h16.275c-5.564 0-10.716-2.941-13.546-7.733z" fill="#514c68" data-original="#000000" class=""></path><path d="m319.977 346.753c.069-8.047.14-16.971.208-26.275h-16.275c-.068 9.304-.139 18.228-.208 26.275-.076 8.688 6.907 15.791 15.595 15.866h.138c2.978 0 5.756-.844 8.133-2.286-4.585-2.783-7.641-7.827-7.591-13.58z" fill="#514c68" data-original="#000000" class=""></path></g><g><path d="m145.948 249.07c-5.487-3.324-8.603-9.813-7.295-16.475 4.268-21.732 21.817-38.15 43.186-41.509-2.665-.42-5.394-.644-8.175-.644-24.92 0-46.488 17.728-51.286 42.153-1.674 8.525 3.879 16.793 12.405 18.468 3.999.786 7.933-.035 11.165-1.993z" fill="#514c68" data-original="#000000" class=""></path><path d="m154.792 366.122c-5.197-1.732-9.082-5.667-10.659-10.796-2.691-8.749 1.347-14.037 10.194-25.621 7.253-9.496 20.752-27.173 43.374-59.495 6.554-9.365 10.781-17.712 12.574-24.827l.452-3.536c-.454-11.073-9.605-19.942-20.787-19.942-2.866 0-5.613.604-8.127 1.674 7.181 3.07 12.302 10.058 12.639 18.267l-.452 3.536c-1.792 7.115-6.019 15.462-12.574 24.827-22.622 32.322-36.121 49.998-43.374 59.495-8.848 11.585-12.886 16.872-10.194 25.621 1.577 5.129 5.463 9.064 10.659 10.796 2.137.712 4.185 1.396 31.58 1.396 2.676 0 5.598-.007 8.783-.021-20.304-.116-22.166-.733-24.088-1.374z" fill="#514c68" data-original="#000000" class=""></path></g></g></g><g><path d="m432.851 511.169c-2.082 0-4.197-.422-6.224-1.313-7.831-3.442-11.388-12.581-7.946-20.411l52.246-118.855h-53.607c-8.554 0-15.488-6.934-15.488-15.488s6.934-15.488 15.488-15.488h77.334c5.231 0 10.109 2.641 12.969 7.022s3.314 9.909 1.209 14.698l-61.795 140.575c-2.55 5.803-8.23 9.259-14.186 9.26z" fill="#90d8f9" data-original="#90d8f9" class=""></path></g><g fill="#80b4fb"><path d="m431.734 370.589h-14.414c-8.559 0-15.488-6.928-15.488-15.488 0-8.549 6.928-15.488 15.488-15.488h14.414c-8.549 0-15.488 6.939-15.488 15.488 0 8.56 6.938 15.488 15.488 15.488z" fill="#80b4fb" data-original="#80b4fb"></path><path d="m440.066 509.38c-2.209 1.167-4.698 1.797-7.217 1.797-2.086 0-4.202-.423-6.226-1.322-7.826-3.438-11.389-12.576-7.95-20.402l52.246-118.864h14.424l-52.246 118.864c-3.294 7.496-.176 16.19 6.969 19.927z" fill="#80b4fb" data-original="#80b4fb"></path></g><path d="m326.93 449.194c-1.139 0-2.295-.253-3.386-.786-3.834-1.874-5.423-6.5-3.549-10.334l89.273-182.665c1.874-3.835 6.501-5.424 10.334-3.549 3.834 1.874 5.423 6.5 3.549 10.334l-89.273 182.665c-1.341 2.741-4.089 4.335-6.948 4.335z" fill="#8b9da5" data-original="#868086" class=""></path></g></g></svg>